<?xml version="1.0" standalone="no"?>
<!DOCTYPE svg PUBLIC "-//W3C//DTD SVG 20010904//EN"
 "http://www.w3.org/TR/2001/REC-SVG-20010904/DTD/svg10.dtd">
<svg version="1.0" xmlns="http://www.w3.org/2000/svg"
 width="2362.000000pt" height="2362.000000pt" viewBox="0 0 2362.000000 2362.000000"
 preserveAspectRatio="xMidYMid meet">

<g transform="translate(0.000000,2362.000000) scale(0.100000,-0.100000)"
fill="#000000" stroke="none">
<path d="M3967 18834 c-335 -60 -610 -319 -705 -662 l-27 -97 0 -6695 0 -6695
1030 -3 c1068 -3 1200 1 1330 38 168 47 329 153 448 295 69 82 148 236 180
350 l22 80 5 1830 5 1831 820 -1005 c451 -552 1167 -1430 1590 -1951 424 -520
793 -972 820 -1004 68 -79 222 -207 322 -267 106 -64 243 -121 374 -156 l104
-28 1579 -3 c1276 -2 1577 0 1569 10 -6 7 -394 483 -864 1058 -1268 1553
-3779 4640 -3779 4645 0 6 1799 2220 1883 2318 l49 57 1742 -2 1741 -3 6
-2835 c3 -1559 9 -2851 13 -2870 4 -19 14 -82 22 -140 70 -481 278 -958 572
-1310 409 -490 980 -798 1667 -901 231 -34 531 -40 1755 -37 1282 5 1204 1
1377 67 263 102 470 337 545 621 22 84 22 91 25 953 l4 867 -1121 0 c-982 0
-1130 2 -1197 16 -289 59 -515 265 -614 559 l-24 70 -3 2473 -2 2472 627 0
c645 0 794 6 1063 41 743 96 1273 343 1528 713 62 89 101 171 139 293 l28 88
3 1094 3 1095 -123 -126 c-136 -139 -221 -200 -408 -293 -336 -168 -736 -274
-1255 -331 -122 -14 -287 -18 -877 -21 l-728 -5 0 1761 0 1762 -1132 -4
c-1036 -2 -1138 -4 -1197 -20 -332 -90 -562 -312 -663 -639 l-23 -73 -5 -1395
-5 -1395 -1190 -5 c-654 -3 -1191 -6 -1192 -8 -2 -1 -3 -8 -3 -15 0 -7 -14
-26 -30 -42 -16 -16 -30 -32 -30 -37 0 -4 -22 -29 -48 -55 -26 -27 -78 -86
-115 -133 -77 -97 -145 -176 -199 -231 -21 -20 -38 -45 -38 -54 0 -11 -6 -15
-18 -11 -14 5 -18 1 -18 -16 1 -17 -4 -23 -20 -22 -12 0 -27 -8 -33 -18 -6
-10 -7 -18 -2 -18 5 0 12 6 14 13 4 9 6 9 6 0 1 -7 -14 -27 -32 -45 -18 -18
-57 -66 -87 -106 -36 -49 -57 -69 -64 -62 -6 6 -16 4 -28 -7 -22 -19 -24 -41
-3 -23 9 7 19 10 23 6 4 -4 -2 -15 -14 -25 -11 -9 -29 -29 -38 -44 -22 -33
-40 -36 -31 -4 7 22 7 22 -8 2 -10 -13 -12 -22 -5 -26 7 -5 1 -16 -15 -32 -15
-13 -27 -28 -27 -32 0 -4 -8 -15 -19 -24 -10 -9 -26 -31 -35 -49 -9 -18 -20
-31 -24 -28 -5 3 -19 -13 -32 -35 -26 -41 -36 -47 -43 -26 -2 6 -3 4 -1 -6 2
-16 -18 -45 -68 -101 -10 -11 -18 -23 -18 -27 0 -4 -9 -5 -21 -2 -17 5 -20 2
-17 -13 2 -10 -4 -26 -12 -34 -8 -9 -24 -29 -35 -44 -11 -15 -32 -41 -47 -56
-16 -16 -28 -31 -28 -35 0 -3 -11 -17 -25 -31 -14 -14 -25 -29 -25 -34 0 -5
-21 -30 -47 -57 -27 -27 -59 -64 -73 -83 -14 -18 -35 -43 -47 -54 -13 -11 -23
-25 -23 -32 0 -7 -8 -10 -21 -7 -16 5 -20 2 -17 -12 3 -19 -5 -31 -75 -108
-21 -23 -59 -70 -85 -105 -32 -43 -51 -61 -62 -57 -12 4 -16 -1 -16 -17 1 -17
-4 -23 -20 -22 -12 0 -27 -8 -33 -18 -6 -10 -7 -18 -2 -18 5 0 12 6 14 13 4 9
6 9 6 0 1 -7 -15 -27 -34 -46 -19 -19 -35 -38 -35 -43 0 -5 -16 -26 -35 -46
-23 -24 -32 -39 -24 -43 21 -13 8378 -19 8642 -6 260 12 468 31 625 56 56 9
106 14 111 11 5 -4 11 -1 13 5 2 7 13 9 27 4 22 -7 22 -8 4 -20 -41 -28 -424
-78 -728 -95 -124 -6 -1896 -10 -5095 -10 -3302 0 -4951 -3 -5045 -10 -194
-15 -383 -45 -560 -89 -104 -27 -152 -35 -157 -27 -4 6 -2 14 5 17 21 12 218
67 317 89 52 12 98 26 102 33 6 9 10 9 17 -2 9 -15 26 2 17 17 -3 5 10 24 29
43 19 19 35 41 35 49 0 8 10 20 23 25 12 6 29 24 37 42 8 17 23 34 33 36 9 3
24 21 32 40 8 20 23 38 34 42 22 7 73 70 64 79 -3 3 6 16 20 29 15 12 27 26
27 30 0 4 11 20 25 35 l25 27 0 -25 c1 -19 7 -11 24 30 13 30 35 61 48 70 33
21 56 50 70 88 7 17 17 32 23 32 5 0 20 18 33 40 12 22 27 40 33 40 11 0 79
71 79 83 0 4 16 21 35 38 19 17 33 36 32 42 -1 6 8 16 21 22 12 5 22 17 22 26
0 10 14 29 30 42 17 14 30 31 30 38 0 16 69 81 80 74 4 -3 6 4 3 14 -3 13 2
21 16 26 11 3 25 21 32 39 7 19 25 41 41 50 15 10 28 22 28 27 0 6 18 28 40
49 22 21 44 50 50 65 6 15 19 29 29 32 10 2 24 19 32 36 8 18 24 36 37 42 12
5 25 19 28 30 4 11 20 32 35 48 16 15 29 34 29 42 0 8 5 15 10 15 16 0 69 63
70 81 0 9 11 20 24 23 14 3 28 16 32 28 4 12 24 41 45 63 21 22 39 45 39 50 0
6 11 19 25 29 14 10 25 22 25 27 0 4 12 20 28 36 58 61 102 117 102 129 0 6
11 15 24 18 16 4 29 18 37 41 7 19 19 35 26 35 7 0 24 18 38 40 14 23 30 38
34 35 8 -4 17 8 19 28 1 4 14 19 29 33 l28 25 -72 -5 c-182 -15 -492 -89 -678
-163 -324 -127 -623 -334 -880 -605 -53 -57 -204 -233 -334 -393 -517 -633
-1627 -1998 -1641 -2019 -8 -13 -78 -101 -155 -195 l-140 -173 -3 3551 -2
3551 -1103 -1 c-901 -1 -1116 -3 -1180 -15z m10853 -339 c-7 -9 -19 -14 -26
-11 -8 3 -20 -5 -29 -17 -8 -12 -15 -17 -15 -12 0 6 -5 3 -10 -5 -5 -8 -10
-10 -10 -4 0 14 51 49 67 46 6 -1 14 2 18 8 3 5 9 10 12 10 3 0 0 -7 -7 -15z
m-97 -72 c7 -7 -32 -38 -48 -38 -5 0 -10 -4 -10 -10 -2 -35 -67 -95 -81 -73
-4 6 -3 9 2 6 5 -3 20 6 34 20 14 14 17 20 8 13 -29 -21 -21 -8 25 42 41 45
57 54 70 40z m-11191 -8456 c0 -702 -3 -1281 -7 -1286 -3 -6 -10 -11 -16 -11
-15 0 -12 2553 3 2568 6 6 13 10 15 8 3 -2 4 -578 5 -1279z m14208 -3001 c107
-28 233 -46 327 -46 64 0 84 -14 37 -26 -37 -9 -183 4 -289 26 -117 24 -262
79 -268 101 -4 15 2 14 47 -7 28 -13 94 -34 146 -48z"/>
<path d="M11725 15230 c-3 -5 -1 -10 4 -10 6 0 11 5 11 10 0 6 -2 10 -4 10 -3
0 -8 -4 -11 -10z"/>
<path d="M11150 14549 c0 -5 5 -7 10 -4 6 3 10 8 10 11 0 2 -4 4 -10 4 -5 0
-10 -5 -10 -11z"/>
<path d="M11121 14514 c0 -11 3 -14 6 -6 3 7 2 16 -1 19 -3 4 -6 -2 -5 -13z"/>
<path d="M10750 14069 c0 -5 5 -7 10 -4 6 3 10 8 10 11 0 2 -4 4 -10 4 -5 0
-10 -5 -10 -11z"/>
<path d="M10716 14035 c-3 -8 -1 -15 4 -15 6 0 10 7 10 15 0 8 -2 15 -4 15 -2
0 -6 -7 -10 -15z"/>
<path d="M10315 13550 c-3 -5 -1 -10 4 -10 6 0 11 5 11 10 0 6 -2 10 -4 10 -3
0 -8 -4 -11 -10z"/>
<path d="M10081 13264 c0 -11 3 -14 6 -6 3 7 2 16 -1 19 -3 4 -6 -2 -5 -13z"/>
<path d="M8400 13209 c0 -5 5 -7 10 -4 6 3 10 8 10 11 0 2 -4 4 -10 4 -5 0
-10 -5 -10 -11z"/>
</g>
</svg>
